# xmcd
#
# Track frame offsets: 
#        150
#        11482
#        23337
#        37412
#        49567
#        61097
#        73215
#        85167
#        98970
#        109070
#        122670
#        136205
#        149847
#        163397
#        176002
#        190565
#        204360
#        218535
#        232425
#        245852
#        257205
#        269005
#        280402
#        293780
#        305957
#
# Disc length: 4246 seconds
#
# Revision: 1
# Processed by: cddbd v1.5.2PL0 Copyright (c) Steve Scherf et al.
# Submitted via: ExactAudioCopy v1.1
#
DISCID=8c109419
DTITLE=Various Artist - The Cocktail Combos - Disc 3
DYEAR=1997
DGENRE=Blues
TTITLE0=Charles Brown - Rising Sun (mono)
TTITLE1=Charles Brown - Cryin' And Driftin' Blues (mono)
TTITLE2=Charles Brown - Goodnight My Love (mono)
TTITLE3=Charles Brown - Cryin' Mercy (mono)
TTITLE4=Charles Brown - P.S. I Love You (mono)
TTITLE5=Charles Brown - My Silent Love (mono)
TTITLE6=Charles Brown - I Want To Fool Around With You (mono)
TTITLE7=Floyd Dixon - Married Woman (mono)
TTITLE8=Floyd Dixon - Wino Blues (mono)
TTITLE9=Floyd Dixon - Empty Stocking Blues (mono)
TTITLE10=Floyd Dixon - Walkin' And Talkin' Blues (mono)
TTITLE11=Floyd Dixon - San Francisco Blues (mono)
TTITLE12=Floyd Dixon - Bad Neighborhood (mono)
TTITLE13=Floyd Dixon - You Played Me For A Fool (mono)
TTITLE14=Floyd Dixon - Telephone Blues (mono)
TTITLE15=Floyd Dixon - You Need Me Now (mono)
TTITLE16=Floyd Dixon - Broken Hearted Traveler (mono)
TTITLE17=Floyd Dixon - Do I Love You (mono)
TTITLE18=Floyd Dixon - A Long Time Ago (mono)
TTITLE19=Floyd Dixon - Lovin' (Brought Me Into This World) (mono)
TTITLE20=Floyd Dixon - Tired, Broke And Busted (mono)
TTITLE21=Floyd Dixon - Come Back Baby (mono)
TTITLE22=Floyd Dixon - Call Operator 210 (mono)
TTITLE23=Floyd Dixon - Wine, Wine, Wine (mono)
TTITLE24=Floyd Dixon - Red Cherries (mono)
EXTD=YEAR: 1997
EXTT0=
EXTT1=
EXTT2=
EXTT3=
EXTT4=
EXTT5=
EXTT6=
EXTT7=
EXTT8=
EXTT9=
EXTT10=
EXTT11=
EXTT12=
EXTT13=
EXTT14=
EXTT15=
EXTT16=
EXTT17=
EXTT18=
EXTT19=
EXTT20=
EXTT21=
EXTT22=
EXTT23=
EXTT24=
PLAYORDER=
